**ABCDEFGHIJKLMNOPQRSTUVWXYZabcdefghijklmnopqrstuvwxyz**************************
**PARASOLID !"#$%&'()*+,-./:;<=>?@[\]^_`{|}~0123456789**************************
**PART1;
MC=AMD64;
MC_MODEL=Intel64 Family 6 Model 140 Stepping 1, GenuineIntel;
MC_ID=unknown;
OS=Windows_NT;
OS_RELEASE=unknown;
FRU=Parasolid Version 33.1, build 247,  8- 6-2021;
APPL=SOLIDWORKS 2022-2022009;
SITE=;
USER=unknown;
FORMAT=text;
GUISE=transmit;
KEY=FILEPart2.x_t;
DATE=Fri Apr 29 09:09:41 2022;
**PART2;
SCH=SCH_3301247_33103;
USFLD_SIZE=0;
**PART3;
**END_OF_HEADER*****************************************************************
T51 : TRANSMIT FILE created by modeller version 330124723 SCH_3301247_33103_1300
6230 0 12 35 CCCI7 lattice222 0 CCCI4 mesh1006 0 I8 polyline1008 0 CCCCCCCDI5 ow
ner1040 0 CCCCCCI13 boundary_mesh1006 0 I17 boundary_polyline1008 0 CCCA16 index
_map_offset0 0 1 dA9 index_map82 0 A17 node_id_index_map82 0 A20 schema_embeddin
g_map82 0 A5 child12 0 A14 lowest_node_id0 0 1 dA16 mesh_offset_data206 0 Z1 424
 2 3 0 0 0 0 0 0 0 1e3 1e-8 0 4 0 1 0 1 1 5 6 7 8 0 0 9 10 11 0 0 0 0 0 0 0 81 2
55 2 2 413 12 1 13 0 0 0 0 14 70 11 CI9 list_type0 0 1 uI10 notransmit0 0 1 lCCC
DCCDI12 finger_index0 0 1 dI12 finger_block1012 0 CZ3 0 4 T1 0 0 10 20 1 15 15 1
3 255 5 62 0 1 0 16 0 0 17 0 54 255 6 324 0 18 19 0 0 +0 0 -.00254 0 0 -1 .12446
 .00254 -1 0 0 31 255 7 308 0 10 20 0 0 -0 0 0 0 0 -1 -1 0 0 .12446 29 255 8 50
 0 21 22 0 .03333749999974465 .0577422437974749 0 19 8 CCCCCCCA5 owner12 0 Z9 79
 0 1 17 0 23 V0 16 255 10 305 0 ?24 0 25 7 0 0 1 18 255 11 16 0 26 0 27 22 ?1 17
 255 26 0 28 29 29 11 30 31 0 32 +18 27 13 0 33 11 21 34 ?1 29 22 18 0 11 34 8 .
03333749999974465 .0577422437974749 .0254 29 34 15 0 27 35 22 -.066675 816533253
331498e-32 .0254 29 35 165 0 36 0 34 -.066675 0 0 18 36 140 0 37 21 0 35 ?1 17 3
7 0 38 39 39 36 40 41 0 42 -18 21 45 0 39 27 36 8 ?1 17 39 0 38 37 37 21 43 44 0
 45 +15 255 38 144 0 39 46 0 17 43 0 47 33 45 36 39 44 0 0 -16 44 40 0 ?39 41 48
 49 0 0 1 17 45 0 47 43 50 21 32 51 0 40 +15 47 56 0 43 16 0 17 50 0 47 45 33 11
 29 52 0 0 +17 32 0 53 30 40 11 45 51 0 50 -16 51 52 0 ?45 54 31 55 0 0 1 17 40
 0 53 32 42 21 37 41 0 0 +15 53 54 0 40 56 0 17 42 0 53 40 30 36 33 54 0 43 +16
 41 35 0 ?40 52 44 57 0 0 1 16 52 5 0 ?50 31 41 58 0 0 1 31 57 48 0 41 49 55 0 +
0 0 0 0 0 1 1 0 0 .066675 31 49 49 0 44 59 57 0 +-.066675 .1154844875940652 0 0
 0 1 1 0 0 .1154844875940652 30 255 55 58 0 51 57 60 0 +.03333749999974465 .0577
422437974749 .0254 0 0 -1 30 60 59 0 54 55 61 0 +-.066675 816533253331498e-32 .0
254 0 0 -1 16 54 53 0 ?42 62 51 60 0 0 1 31 61 172 0 62 60 63 0 --.038227 .06621
11062209355 0 0 0 -1 -1 0 0 .006096 16 62 169 0 ?64 65 54 61 0 0 1 31 63 214 0 6
6 61 67 0 +0 0 -.0127 0 0 -1 -1 0 0 .0127 16 66 227 0 ?68 48 69 63 0 0 1 31 67 2
68 0 65 63 70 0 +-.038227 .0662111062209355 .0254 0 0 1 1 0 0 .003556 16 65 265
 0 ?71 72 62 67 0 0 1 31 70 274 0 72 67 20 0 --.038227 .0662111062209355 .02286
 0 0 1 1 0 0 .006096 16 72 271 0 ?73 25 65 70 0 0 1 31 20 302 0 25 70 7 0 +0 0 -
.00254 0 0 -1 -1 0 0 .127 16 25 299 0 ?74 10 72 20 0 0 1 17 74 0 75 74 74 0 76 2
5 0 0 +15 75 300 0 74 77 78 17 76 0 79 76 76 0 74 25 0 0 -15 79 319 0 76 18 0 14
 255 18 317 80 ?0 81 82 5 6 +0 0 0 81 23 81 1 80 414 83 18 84 0 0 85 86 14 81 28
3 85 ?18 87 88 5 19 +0 0 18 87 23 15 82 318 0 89 18 79 13 23 22 0 0 0 0 0 0 9 16
 14 16 57 90 ?56 0 47 5 91 +0 0 56 0 23 81 1 90 416 83 16 92 0 85 93 94 14 56 55
 93 ?95 16 53 5 96 -0 0 95 16 23 51 255 91 61 0 16 96 19 0 --.066675 .1154844875
940652 .0254 0 0 -1 .1154844875940652 -1 0 0 51 96 60 0 56 97 91 0 -0 0 .0254 0
 0 -1 .066675 -1 0 0 54 19 290 0 81 91 6 0 +-.038227 .0662111062209355 .02286 0
 0 1 .003556 .00254 1 0 0 50 255 97 2 0 95 98 96 0 +0 0 .0254 0 0 1 1 0 0 14 95
 1 99 ?46 56 100 5 97 +0 0 46 56 23 51 98 158 0 77 101 97 0 -0 0 -.0127 0 0 1 .1
27 1 0 0 14 77 145 102 ?103 46 75 5 98 -0 0 103 46 23 50 101 159 0 46 104 98 0 +
0 0 0 0 0 -1 -1 0 0 14 46 141 105 ?77 95 106 5 101 -0 0 77 95 23 50 104 160 0 10
3 107 101 0 +0 0 -.0127 0 0 -1 -1 0 0 14 103 150 108 ?109 77 110 5 104 +0 0 109
 77 23 50 107 190 0 111 112 104 0 +-.038227 .0662111062209355 .0254 0 0 1 1 0 0
 14 111 182 113 ?87 109 114 5 107 +0 0 87 109 23 51 112 192 0 109 115 107 0 --.0
38227 .0662111062209355 .0254 0 0 -1 .006096 -1 0 0 14 109 178 116 ?111 103 117
 5 112 -0 0 111 103 23 51 115 249 0 87 0 112 0 +0 0 -.02794 0 0 1 .0127 1 0 0 14
 87 236 118 ?81 111 119 5 115 -0 0 81 111 23 81 1 118 424 83 87 120 0 116 0 121
 15 119 239 0 68 87 122 17 68 0 119 68 68 0 123 66 0 0 +15 122 240 0 124 87 0 17
 124 0 122 124 124 0 125 69 0 0 +17 125 0 100 125 125 0 124 69 0 0 -16 69 228 0
 ?124 66 0 126 0 0 1 31 126 252 0 69 0 127 0 +0 0 .0254 0 0 1 1 0 0 .0127 31 127
 164 0 48 126 58 0 +0 0 -.0127 0 0 -1 -1 0 0 .127 16 48 135 0 ?128 44 66 127 0 0
 1 31 58 6 0 52 127 59 0 +-.066675 .1154844875940652 .0254 0 0 1 1 0 0 .11548448
75940652 31 59 10 0 31 58 49 0 +0 0 .0254 0 0 1 1 0 0 .066675 16 31 9 0 ?26 51 5
2 59 0 0 1 17 128 0 129 128 128 0 130 48 0 0 +15 129 152 0 128 103 0 17 130 0 78
 130 130 0 128 48 0 0 -15 78 148 0 130 77 0 15 100 219 0 125 95 28 15 28 4 0 29
 95 0 17 29 0 28 26 26 27 50 52 0 0 -17 123 0 110 123 123 0 68 66 0 0 -15 110 21
3 0 123 103 129 80 255 1 83 131 132 9000 1 1 1 1 1 1 1 1 0 FFFFTFTFFFFFFF1 81 1
 120 387 133 87 0 118 134 135 136 81 1 116 423 83 109 137 0 113 118 138 82 255 1
 121 866320561 81 1 137 385 133 109 0 116 139 134 140 81 1 113 422 83 111 134 0
 108 116 141 82 1 138 854130867 81 1 134 386 133 111 0 113 137 120 142 81 1 108
 421 83 103 139 0 105 113 143 82 1 141 854327475 81 1 139 384 133 103 0 108 144
 137 145 81 1 105 420 83 46 146 0 102 108 147 82 1 143 850395313 81 1 146 382 13
3 46 0 105 148 144 149 81 1 102 419 83 77 144 0 99 105 150 82 1 147 852623541 81
 1 144 383 133 77 0 102 146 139 151 81 1 99 418 83 95 148 0 93 102 152 82 1 150
 850591925 81 1 148 381 133 95 0 99 153 146 154 81 1 93 417 83 56 153 0 90 99 15
5 82 1 152 824901809 81 1 153 380 133 56 0 93 92 148 156 82 1 155 829358255 80 1
 133 0 157 8001 0 0 0 0 3 5 0 0 0 FFFFTFTFFFFFFF2 81 1 92 379 133 16 0 90 0 153
 158 83 255 3 156 1 1 1 83 3 158 1 1 1 79 255 15 157 SDL/TYSA_COLOUR83 3 154 1 1
 1 83 3 151 1 1 1 83 3 149 1 1 1 83 3 145 1 1 1 83 3 142 1 1 1 83 3 140 1 1 1 81
 1 135 388 133 81 0 85 120 84 159 83 3 136 1 1 1 81 1 85 415 83 81 135 0 80 90 1
60 81 1 84 389 133 18 0 80 135 0 161 83 3 159 1 1 1 83 3 161 1 1 1 82 1 160 -181
469005 79 14 132 SWEntUnchanged15 117 272 0 73 109 162 17 73 0 117 73 73 0 163 7
2 0 0 +15 162 181 0 64 109 0 17 64 0 162 64 64 0 164 62 0 0 +17 164 0 165 164 16
4 0 64 62 0 0 -15 165 171 0 164 46 38 17 163 0 88 163 163 0 73 72 0 0 -15 88 284
 0 163 81 166 15 166 285 0 167 81 0 17 167 0 166 167 167 0 71 65 0 0 -17 71 0 11
4 71 71 0 167 65 0 0 +15 114 266 0 71 111 0 15 106 306 0 24 46 165 17 24 0 106 2
4 24 0 89 10 0 0 +17 89 0 82 89 89 0 24 10 0 0 -82 1 94 829620399 82 1 86 340789
01 17 30 0 53 42 32 27 26 31 0 29 -17 33 0 47 50 43 27 42 54 0 30 -19 17 63 0 1
 0 9 5 S0 74 4 CI16 index_map_offset0 0 1 dCCZ20 15 10 0 0 168 118 169 170 171 1
72 173 13 84 2 0 0 0 0 0 0 0 0 0 0 81 5 168 20 174 1 0 169 0 0 175 0 0 0 0 81 2
 169 195 176 1 168 170 0 0 0 177 81 2 170 200 178 1 169 171 0 0 0 179 81 1 171 3
30 180 1 170 172 0 0 181 81 2 172 342 182 1 171 173 0 0 0 183 81 2 173 349 184 1
 172 13 0 0 185 0 81 2 13 363 186 1 173 2 0 0 0 0 80 2 186 187 188 9000 0 0 0 0
 3 5 0 0 0 FFTFFFFFFFFFFF9 1 79 16 188 BODY_RECIPE_200180 2 184 189 190 8004 0 0
 0 0 3 5 0 0 0 FFTFFFFFFFFFFF2 3 83 1 185 1e3 79 16 190 SDL/TYSA_DENSITY80 2 182
 191 192 9000 0 0 0 0 3 5 0 0 0 FFTFFFFFFFFFFF9 1 82 1 183 1 79 24 192 BODY_IN_L
IGHTWEIGHT_PERM80 1 180 193 194 9000 1 1 1 1 1 1 1 1 0 FFTFFFFFFFFFFF1 82 1 181
 2175272 79 10 194 BODY_MATCH80 2 178 195 196 9000 0 0 0 0 3 5 0 0 0 FFTFFFFFFFF
FFF9 1 82 1 179 125 79 30 196 LAST_BODY_MODIFYING_FEATURE_ID80 2 176 197 198 900
0 0 0 0 0 3 5 0 0 0 FFTFFFFFFFFFFT9 1 82 1 177 186 79 19 198 ENT_TIME_STAMP_2001
80 5 174 199 200 9000 0 0 0 0 3 6 0 0 0 FFTTTTTTFTTFTT2 2 2 2 2 83 1 175 1 79 19
 200 BODY_SCALING_FACTOR80 2 12 201 202 9000 0 0 0 0 3 5 0 0 0 FFTFFFFFFFFFFF9 1
 82 1 14 108 79 12 202 ATOM_ID_20011 0 
